<?xml version="1.0" encoding="UTF-8"?><svg id="Layer_2" xmlns="http://www.w3.org/2000/svg" width="75.511002" viewBox="0 0 120 174.84"><defs><style>.cls-1{fill:#fff;}</style></defs><g id="TOP_MENU"><g id="LOGO_WHITE"><path class="cls-1" d="m84.55,0c-9.53,0-39.56,0-49.09,0C15.87,0,0,15.87,0,35.45v49.09c0,19.58,15.87,35.45,35.45,35.45h49.09c19.58,0,35.45-15.87,35.45-35.45v-49.09C120,15.87,104.13,0,84.55,0Zm6.98,90.62c-.12.12-.27.23-.43.31-.25.13-4.34,1.92-6.16,1.92-1.14,0-2.16-.53-2.83-1.36-.42-.52-17.02-25.77-22.11-33.53-5.1,7.76-21.69,33.01-22.11,33.53-.66.83-1.68,1.36-2.83,1.36-1.83,0-5.91-1.79-6.16-1.92-.16-.08-.3-.19-.43-.31-.33-.33-.54-.78-.54-1.29,0-.37.11-.72.31-1.01.3-.44,23.19-34.32,27.12-39.88.12-.21.26-.41.42-.59.07-.1.12-.16.14-.18.67-.67,1.59-1.08,2.61-1.08,0,0,0,0,0,0,0,0,.01,0,.02,0h2.91c1.02,0,1.94.41,2.61,1.08.67.67,27.36,40.17,27.68,40.65.19.29.31.63.31,1.01,0,.5-.21.96-.54,1.29Z"/><path class="cls-1" d="m29.97,174.84c-1.73,0-3.06-.47-3.96-1.41-.91-.94-1.36-2.26-1.36-3.96s.49-3.07,1.46-4.17c.97-1.1,2.41-1.66,4.33-1.66.87,0,1.68.11,2.43.31l-.19,1.7c-.87-.27-1.68-.4-2.43-.4-1.13,0-2.01.37-2.63,1.12-.62.75-.93,1.72-.93,2.9,0,1.26.32,2.22.95,2.88.64.67,1.55,1,2.74,1,.41,0,.83-.05,1.27-.15.44-.1.83-.22,1.16-.38l.17,1.68c-.92.35-1.92.53-3,.53Z"/><path class="cls-1" d="m43.09,174.69l-.85-2.28h-4.85l-.86,2.29h-1.93s4.24-10.93,4.24-10.93h2.18l4.19,10.93h-2.11Zm-2.68-7.1l-.6-1.83c-.14.55-.34,1.15-.59,1.8l-1.36,3.44h3.85l-1.31-3.41Z"/><path class="cls-1" d="m54.95,174.69l-4.11-6.4c-.45-.69-.85-1.41-1.2-2.16v.25c0,.46,0,.88.02,1.26.01.38.03.74.04,1.09v5.95h-1.85v-10.93h2.51s4.05,6.31,4.05,6.31c.46.69.89,1.41,1.28,2.18-.04-.72-.06-1.89-.06-3.51v-4.98h1.85v10.93h-2.54Z"/><path class="cls-1" d="m68.68,174.69l-.85-2.28h-4.85l-.86,2.29h-1.93s4.24-10.93,4.24-10.93h2.18l4.19,10.93h-2.11Zm-2.68-7.1l-.6-1.83c-.14.55-.34,1.15-.59,1.8l-1.36,3.44h3.85l-1.31-3.41Z"/><path class="cls-1" d="m76.62,174.73c-.64,0-1.21,0-1.71-.01-.5,0-.98-.02-1.46-.03v-10.93h3.73c1.86,0,3.3.43,4.32,1.3,1.02.86,1.53,2.21,1.53,4.03s-.59,3.26-1.76,4.21-2.73,1.43-4.66,1.43Zm.31-9.48h-1.55v7.82c.33.04.82.06,1.46.06,1.3,0,2.32-.33,3.06-.98.75-.66,1.12-1.65,1.12-2.98,0-2.61-1.37-3.92-4.1-3.92Z"/><path class="cls-1" d="m93.11,174.69l-.85-2.28h-4.85l-.86,2.29h-1.93s4.24-10.93,4.24-10.93h2.18l4.2,10.93h-2.11Zm-2.68-7.1l-.6-1.83c-.14.55-.34,1.15-.59,1.8l-1.36,3.44h3.85l-1.31-3.41Z"/><path class="cls-1" d="m13.76,152.73v-16.37h9.24v2.23h-6.35v4.65h6.03v2.17h-6.03v5.03h6.35v2.29h-9.24Z"/><path class="cls-1" d="m31.82,152.79c-.96,0-1.82,0-2.56-.02-.74-.01-1.47-.03-2.18-.04v-16.37h5.59c2.78,0,4.94.65,6.47,1.94,1.53,1.29,2.29,3.31,2.29,6.04s-.88,4.88-2.64,6.31c-1.76,1.43-4.08,2.14-6.97,2.14Zm.46-14.2h-2.32v11.72c.5.06,1.23.1,2.19.1,1.94,0,3.47-.49,4.58-1.48,1.12-.98,1.67-2.47,1.67-4.46,0-3.92-2.04-5.87-6.13-5.87Z"/><path class="cls-1" d="m44.73,152.73v-16.37h2.89v16.37h-2.89Z"/><path class="cls-1" d="m57.74,138.75v13.98h-2.89v-13.98h-4.71v-2.39h12.35v2.39h-4.74Z"/><path class="cls-1" d="m71.25,152.98c-2.58,0-4.52-.74-5.83-2.23-1.31-1.49-1.96-3.5-1.96-6.03s.8-4.7,2.39-6.25c1.59-1.55,3.56-2.32,5.91-2.32s4.38.71,5.78,2.14c1.4,1.42,2.1,3.47,2.1,6.13s-.8,4.75-2.39,6.28c-1.59,1.53-3.59,2.29-6,2.29Zm.28-14.39c-1.42,0-2.62.51-3.58,1.54-.96,1.02-1.45,2.47-1.45,4.32s.39,3.27,1.18,4.37c.79,1.1,2.04,1.64,3.75,1.64,1.51,0,2.74-.5,3.69-1.49.95-.99,1.43-2.44,1.43-4.34s-.45-3.44-1.34-4.48c-.89-1.04-2.12-1.57-3.69-1.57Z"/><path class="cls-1" d="m91.22,152.73l-5.22-7.04h-.12v7.04h-2.89v-16.34c.92,0,1.79-.01,2.59-.03.81-.02,1.57-.04,2.28-.06,1.93,0,3.41.37,4.44,1.11,1.04.74,1.55,1.83,1.55,3.27,0,1.34-.45,2.41-1.35,3.22-.9.81-2.08,1.29-3.55,1.44l1.43,1.75,4.43,5.62h-3.6Zm-3.72-14.23c-.6,0-1.14.03-1.62.09v5.09l1.72.06c1,0,1.79-.25,2.37-.75.58-.5.87-1.18.87-2.03,0-1.64-1.11-2.47-3.34-2.47Z"/><path class="cls-1" d="m100.58,153.01c-.52,0-1.13-.04-1.81-.13-.68-.08-1.25-.18-1.71-.28l.13-2.67c.98.44,2.23.66,3.74.66.96,0,1.78-.21,2.45-.64.67-.43,1.01-1.08,1.01-1.96s-1.28-1.8-3.85-2.7c-2.57-.9-3.85-2.3-3.85-4.21,0-1.51.58-2.71,1.73-3.6,1.15-.89,2.75-1.34,4.81-1.34.57,0,1.12.02,1.66.06.54.04,1.06.11,1.54.22l-.12,2.48c-.44-.15-.95-.26-1.54-.34-.59-.08-1.15-.13-1.7-.13-1.13,0-1.97.2-2.53.61-.56.41-.83.98-.83,1.71,0,.88,1.29,1.78,3.86,2.7,2.58.92,3.86,2.32,3.86,4.21,0,1.61-.64,2.91-1.93,3.88-1.29.97-2.93,1.46-4.92,1.46Z"/></g></g></svg>