<?xml version="1.0" encoding="UTF-8"?><svg id="Layer_2" xmlns="http://www.w3.org/2000/svg" viewBox="0 0 181.77 238.76" width="132" height="173"><defs><style>.cls-1{fill:#fff;}</style></defs><path class="cls-1" d="m116.59,28.49c-9.91,0-41.14,0-51.05,0-20.36,0-36.87,16.51-36.87,36.87v51.05c0,20.36,16.51,36.87,36.87,36.87h51.05c20.36,0,36.87-16.51,36.87-36.87v-51.05c0-20.36-16.51-36.87-36.87-36.87Zm7.26,94.25c-.13.13-.28.24-.44.32-.26.14-4.51,2-6.41,2-1.19,0-2.25-.55-2.94-1.42-.43-.54-17.7-26.8-23-34.87-5.3,8.07-22.56,34.33-22.99,34.87-.69.86-1.75,1.42-2.94,1.42-1.9,0-6.15-1.86-6.41-2-.16-.09-.31-.19-.44-.32-.35-.34-.56-.81-.56-1.34,0-.39.12-.75.32-1.05.31-.46,24.12-35.69,28.21-41.48.13-.22.27-.42.44-.61.08-.1.13-.16.15-.19.69-.7,1.65-1.13,2.72-1.13,0,0,0,0,0,0,0,0,.01,0,.02,0h3.02c1.06,0,2.02.43,2.71,1.13.7.69,28.46,41.78,28.79,42.27.2.3.32.66.32,1.05,0,.52-.22,1-.56,1.34Z"/><path class="cls-1" d="m59.67,210.24c-1.8,0-3.18-.49-4.12-1.46-.94-.97-1.42-2.35-1.42-4.12s.5-3.19,1.52-4.34c1.01-1.15,2.51-1.72,4.5-1.72.9,0,1.74.11,2.53.33l-.2,1.77c-.9-.28-1.74-.41-2.53-.41-1.18,0-2.09.39-2.74,1.17-.65.78-.97,1.78-.97,3.02,0,1.31.33,2.31.99,3,.66.69,1.61,1.04,2.85,1.04.42,0,.86-.05,1.32-.15.46-.1.86-.23,1.21-.39l.17,1.74c-.96.36-2,.55-3.12.55Z"/><path class="cls-1" d="m73.3,210.09l-.89-2.37h-5.04l-.9,2.38h-2.01s4.4-11.36,4.4-11.36h2.27l4.36,11.36h-2.2Zm-2.79-7.38l-.62-1.9c-.15.57-.35,1.2-.61,1.87l-1.41,3.58h4.01l-1.36-3.55Z"/><path class="cls-1" d="m85.64,210.09l-4.27-6.65c-.47-.72-.88-1.47-1.24-2.25v.26c0,.48,0,.92.02,1.31.01.39.03.77.04,1.14v6.18h-1.92v-11.36h2.61s4.21,6.56,4.21,6.56c.48.71.92,1.47,1.33,2.27-.04-.74-.07-1.96-.07-3.65v-5.18h1.92v11.36h-2.64Z"/><path class="cls-1" d="m99.9,210.09l-.89-2.37h-5.04l-.9,2.38h-2.01s4.4-11.36,4.4-11.36h2.27l4.36,11.36h-2.2Zm-2.79-7.38l-.62-1.9c-.15.57-.35,1.2-.61,1.87l-1.41,3.58h4.01l-1.36-3.55Z"/><path class="cls-1" d="m108.16,210.13c-.67,0-1.26,0-1.78-.01-.52,0-1.02-.02-1.51-.03v-11.36h3.88c1.93,0,3.43.45,4.49,1.35,1.06.9,1.59,2.3,1.59,4.19s-.61,3.38-1.83,4.38-2.83,1.49-4.84,1.49Zm.32-9.85h-1.61v8.13c.35.04.85.06,1.52.06,1.35,0,2.41-.34,3.18-1.02.78-.68,1.16-1.71,1.16-3.1,0-2.72-1.42-4.08-4.26-4.08Z"/><path class="cls-1" d="m125.3,210.09l-.89-2.37h-5.04l-.9,2.38h-2.01s4.4-11.36,4.4-11.36h2.27l4.36,11.36h-2.2Zm-2.79-7.38l-.62-1.9c-.15.57-.35,1.2-.61,1.87l-1.41,3.58h4.01l-1.36-3.55Z"/><path class="cls-1" d="m42.82,187.27v-17.01h9.6v2.32h-6.6v4.83h6.27v2.25h-6.27v5.22h6.6v2.38h-9.6Z"/><path class="cls-1" d="m61.6,187.33c-1,0-1.89,0-2.66-.02-.77-.01-1.53-.03-2.27-.04v-17.01h5.81c2.89,0,5.14.67,6.73,2.02,1.59,1.34,2.38,3.44,2.38,6.28s-.91,5.07-2.74,6.55c-1.83,1.49-4.24,2.23-7.25,2.23Zm.48-14.76h-2.41v12.18c.52.07,1.28.1,2.28.1,2.02,0,3.6-.51,4.77-1.54,1.16-1.02,1.74-2.57,1.74-4.64,0-4.07-2.13-6.11-6.38-6.11Z"/><path class="cls-1" d="m75.02,187.27v-17.01h3v17.01h-3Z"/><path class="cls-1" d="m88.53,172.74v14.53h-3v-14.53h-4.9v-2.48h12.83v2.48h-4.93Z"/><path class="cls-1" d="m102.57,187.53c-2.68,0-4.7-.77-6.06-2.32-1.36-1.54-2.04-3.63-2.04-6.27s.83-4.89,2.48-6.5c1.65-1.61,3.7-2.42,6.14-2.42s4.55.74,6.01,2.22c1.46,1.48,2.19,3.6,2.19,6.37s-.83,4.94-2.48,6.53c-1.65,1.59-3.73,2.38-6.24,2.38Zm.29-14.95c-1.48,0-2.72.53-3.72,1.6-1,1.06-1.5,2.56-1.5,4.49s.41,3.4,1.22,4.54c.82,1.14,2.12,1.71,3.9,1.71,1.57,0,2.85-.52,3.84-1.55.99-1.03,1.49-2.53,1.49-4.51s-.46-3.57-1.39-4.66c-.93-1.09-2.2-1.63-3.84-1.63Z"/><path class="cls-1" d="m123.34,187.27l-5.42-7.31h-.13v7.31h-3v-16.98c.96,0,1.86-.01,2.69-.03.84-.02,1.63-.04,2.37-.06,2,0,3.54.38,4.62,1.15,1.08.77,1.62,1.9,1.62,3.4,0,1.39-.47,2.51-1.4,3.35-.94.85-2.17,1.35-3.69,1.5l1.49,1.82,4.6,5.85h-3.74Zm-3.86-14.79c-.63,0-1.19.03-1.69.1v5.29l1.79.07c1.04,0,1.86-.26,2.46-.78.61-.52.91-1.22.91-2.11,0-1.71-1.16-2.56-3.47-2.56Z"/><path class="cls-1" d="m133.07,187.56c-.54,0-1.17-.04-1.88-.13-.71-.09-1.3-.18-1.78-.29l.13-2.78c1.02.46,2.32.69,3.89.69,1,0,1.85-.22,2.55-.67.7-.45,1.04-1.13,1.04-2.04s-1.33-1.87-4-2.81c-2.67-.94-4-2.39-4-4.38,0-1.57.6-2.81,1.8-3.74,1.2-.93,2.86-1.39,5-1.39.59,0,1.16.02,1.73.07.57.04,1.1.12,1.6.23l-.13,2.58c-.46-.15-.99-.27-1.6-.36-.61-.09-1.2-.13-1.76-.13-1.17,0-2.05.21-2.63.64-.58.42-.87,1.02-.87,1.78,0,.91,1.34,1.85,4.02,2.81,2.68.96,4.02,2.42,4.02,4.38,0,1.68-.67,3.02-2.01,4.03-1.34,1.01-3.04,1.52-5.11,1.52Z"/></svg>