<?xml version="1.0" encoding="utf-8"?>
<!-- Generator: Adobe Illustrator 27.5.0, SVG Export Plug-In . SVG Version: 6.00 Build 0)  -->
<svg version="1.1" id="Layer_2" xmlns="http://www.w3.org/2000/svg" xmlns:xlink="http://www.w3.org/1999/xlink" x="0px" y="0px" width="75.511002"
	 viewBox="0 0 181.8 238.8" style="enable-background:new 0 0 181.8 238.8;" xml:space="preserve">
<style type="text/css">
	.st0{fill:#ED1C2C;}
	.st1{fill:#FFFFFF;}
	.st2{fill:#392E2C;}
</style>
<g>
	<path class="st0" d="M153.2,65.4c0-20.4-16.5-36.9-36.9-36.9c-9.9,0-41.1,0-51,0C45,28.5,28.5,45,28.5,65.4c0,9.9,0,41.1,0,51
		c0,20.4,16.5,36.9,36.9,36.9c9.9,0,41.1,0,51,0c20.4,0,36.9-16.5,36.9-36.9C153.2,106.5,153.2,75.3,153.2,65.4z"/>
	<path class="st1" d="M123.9,120.3c-0.3-0.5-28.1-41.6-28.8-42.2c-0.7-0.7-1.7-1.1-2.7-1.1c-0.5,0-2.5,0-3,0c0,0,0,0,0,0
		c0,0,0,0,0,0c-1.1,0-2,0.4-2.7,1.1c0,0-0.1,0.1-0.1,0.2c-0.2,0.2-0.3,0.4-0.4,0.6c-4.1,5.8-27.9,41-28.2,41.5
		c-0.2,0.3-0.3,0.7-0.3,1c0,0.5,0.2,1,0.6,1.3c0.1,0.1,0.3,0.2,0.4,0.3c0.3,0.1,4.5,2,6.4,2c1.2,0,2.2-0.6,2.9-1.4
		c0.4-0.5,17.7-26.8,23-34.9c5.3,8.1,22.5,34.3,23,34.9c0.7,0.9,1.7,1.4,2.9,1.4c1.9,0,6.1-1.9,6.4-2c0.2-0.1,0.3-0.2,0.4-0.3
		c0.3-0.3,0.6-0.8,0.6-1.3C124.2,121,124.1,120.6,123.9,120.3z"/>
</g>
<g>
	<path class="st0" d="M59.7,210.2c-1.8,0-3.2-0.5-4.1-1.5c-0.9-1-1.4-2.3-1.4-4.1c0-1.7,0.5-3.2,1.5-4.3c1-1.1,2.5-1.7,4.5-1.7
		c0.9,0,1.7,0.1,2.5,0.3l-0.2,1.8c-0.9-0.3-1.7-0.4-2.5-0.4c-1.2,0-2.1,0.4-2.7,1.2c-0.6,0.8-1,1.8-1,3c0,1.3,0.3,2.3,1,3
		c0.7,0.7,1.6,1,2.8,1c0.4,0,0.9-0.1,1.3-0.2c0.5-0.1,0.9-0.2,1.2-0.4l0.2,1.7C61.8,210.1,60.8,210.2,59.7,210.2z"/>
	<path class="st0" d="M73.3,210.1l-0.9-2.4h-5l-0.9,2.4l-2,0l4.4-11.4h2.3l4.4,11.4L73.3,210.1z M70.5,202.7l-0.6-1.9
		c-0.1,0.6-0.4,1.2-0.6,1.9l-1.4,3.6h4L70.5,202.7z"/>
	<path class="st0" d="M85.6,210.1l-4.3-6.6c-0.5-0.7-0.9-1.5-1.2-2.2v0.3c0,0.5,0,0.9,0,1.3c0,0.4,0,0.8,0,1.1v6.2h-1.9v-11.4l2.6,0
		l4.2,6.6c0.5,0.7,0.9,1.5,1.3,2.3c0-0.7-0.1-2-0.1-3.6v-5.2h1.9v11.4L85.6,210.1z"/>
	<path class="st0" d="M99.9,210.1l-0.9-2.4h-5l-0.9,2.4l-2,0l4.4-11.4h2.3l4.4,11.4L99.9,210.1z M97.1,202.7l-0.6-1.9
		c-0.1,0.6-0.4,1.2-0.6,1.9l-1.4,3.6h4L97.1,202.7z"/>
	<path class="st0" d="M108.2,210.1c-0.7,0-1.3,0-1.8,0c-0.5,0-1,0-1.5,0v-11.4h3.9c1.9,0,3.4,0.4,4.5,1.3c1.1,0.9,1.6,2.3,1.6,4.2
		c0,1.9-0.6,3.4-1.8,4.4C111.8,209.6,110.2,210.1,108.2,210.1z M108.5,200.3h-1.6v8.1c0.3,0,0.9,0.1,1.5,0.1c1.3,0,2.4-0.3,3.2-1
		c0.8-0.7,1.2-1.7,1.2-3.1C112.7,201.6,111.3,200.3,108.5,200.3z"/>
	<path class="st0" d="M125.3,210.1l-0.9-2.4h-5l-0.9,2.4l-2,0l4.4-11.4h2.3l4.4,11.4L125.3,210.1z M122.5,202.7l-0.6-1.9
		c-0.1,0.6-0.4,1.2-0.6,1.9l-1.4,3.6h4L122.5,202.7z"/>
</g>
<g>
	<path class="st2" d="M42.8,187.3v-17h9.6v2.3h-6.6v4.8h6.3v2.3h-6.3v5.2h6.6v2.4H42.8z"/>
	<path class="st2" d="M61.6,187.3c-1,0-1.9,0-2.7,0c-0.8,0-1.5,0-2.3,0v-17h5.8c2.9,0,5.1,0.7,6.7,2c1.6,1.3,2.4,3.4,2.4,6.3
		c0,2.9-0.9,5.1-2.7,6.6C67,186.6,64.6,187.3,61.6,187.3z M62.1,172.6h-2.4v12.2c0.5,0.1,1.3,0.1,2.3,0.1c2,0,3.6-0.5,4.8-1.5
		c1.2-1,1.7-2.6,1.7-4.6C68.5,174.6,66.3,172.6,62.1,172.6z"/>
	<path class="st2" d="M75,187.3v-17h3v17H75z"/>
	<path class="st2" d="M88.5,172.7v14.5h-3v-14.5h-4.9v-2.5h12.8v2.5H88.5z"/>
	<path class="st2" d="M102.6,187.5c-2.7,0-4.7-0.8-6.1-2.3c-1.4-1.5-2-3.6-2-6.3c0-2.7,0.8-4.9,2.5-6.5c1.7-1.6,3.7-2.4,6.1-2.4
		c2.5,0,4.5,0.7,6,2.2c1.5,1.5,2.2,3.6,2.2,6.4c0,2.8-0.8,4.9-2.5,6.5C107.2,186.7,105.1,187.5,102.6,187.5z M102.9,172.6
		c-1.5,0-2.7,0.5-3.7,1.6c-1,1.1-1.5,2.6-1.5,4.5c0,1.9,0.4,3.4,1.2,4.5c0.8,1.1,2.1,1.7,3.9,1.7c1.6,0,2.8-0.5,3.8-1.5
		c1-1,1.5-2.5,1.5-4.5c0-2-0.5-3.6-1.4-4.7C105.8,173.1,104.5,172.6,102.9,172.6z"/>
	<path class="st2" d="M123.3,187.3l-5.4-7.3h-0.1v7.3h-3v-17c1,0,1.9,0,2.7,0c0.8,0,1.6,0,2.4-0.1c2,0,3.5,0.4,4.6,1.2
		c1.1,0.8,1.6,1.9,1.6,3.4c0,1.4-0.5,2.5-1.4,3.4c-0.9,0.8-2.2,1.3-3.7,1.5l1.5,1.8l4.6,5.8L123.3,187.3z M119.5,172.5
		c-0.6,0-1.2,0-1.7,0.1v5.3l1.8,0.1c1,0,1.9-0.3,2.5-0.8c0.6-0.5,0.9-1.2,0.9-2.1C122.9,173.3,121.8,172.5,119.5,172.5z"/>
	<path class="st2" d="M133.1,187.6c-0.5,0-1.2,0-1.9-0.1c-0.7-0.1-1.3-0.2-1.8-0.3l0.1-2.8c1,0.5,2.3,0.7,3.9,0.7
		c1,0,1.8-0.2,2.5-0.7c0.7-0.4,1-1.1,1-2c0-0.9-1.3-1.9-4-2.8c-2.7-0.9-4-2.4-4-4.4c0-1.6,0.6-2.8,1.8-3.7c1.2-0.9,2.9-1.4,5-1.4
		c0.6,0,1.2,0,1.7,0.1c0.6,0,1.1,0.1,1.6,0.2l-0.1,2.6c-0.5-0.2-1-0.3-1.6-0.4c-0.6-0.1-1.2-0.1-1.8-0.1c-1.2,0-2.1,0.2-2.6,0.6
		c-0.6,0.4-0.9,1-0.9,1.8c0,0.9,1.3,1.8,4,2.8c2.7,1,4,2.4,4,4.4c0,1.7-0.7,3-2,4C136.8,187.1,135.1,187.6,133.1,187.6z"/>
</g>
</svg>
