<?xml version="1.0" standalone="no"?>
<!DOCTYPE svg PUBLIC "-//W3C//DTD SVG 20010904//EN"
 "http://www.w3.org/TR/2001/REC-SVG-20010904/DTD/svg10.dtd">
<svg version="1.0" xmlns="http://www.w3.org/2000/svg"
 width="126.000000pt" height="126.000000pt" viewBox="0 0 126.000000 126.000000"
 preserveAspectRatio="xMidYMid meet">
<metadata>
Created by potrace 1.14, written by Peter Selinger 2001-2017
</metadata>
<g transform="translate(0.000000,126.000000) scale(0.100000,-0.100000)"
fill="#000000" stroke="none">
<path d="M284 1241 c-100 -25 -198 -106 -242 -199 l-27 -57 0 -360 0 -360 30
-58 c37 -74 117 -148 193 -179 56 -22 65 -23 392 -23 327 0 336 1 392 23 75
30 147 96 189 174 l34 63 0 360 0 360 -27 55 c-35 71 -103 139 -176 176 l-57
29 -335 2 c-184 1 -349 -2 -366 -6z m400 -503 c72 -96 276 -405 276 -418 0
-21 -66 -43 -89 -30 -9 5 -65 85 -126 179 -60 93 -112 170 -115 170 -3 1 -56
-77 -118 -173 -62 -96 -119 -177 -127 -180 -23 -8 -85 16 -85 34 0 17 274 429
294 442 27 18 65 8 90 -24z"/>
</g>
</svg>
